<svg version="1" xmlns="http://www.w3.org/2000/svg" width="682.667" height="682.667" viewBox="0 0 512.000000 512.000000"><path d="M0 256v256h512V0H0v256zM370.1 69.1c8.6 3.4 18.5 11.2 23.5 18.6 6.9 10.1 8.6 15.9 9.2 30.5l.4 12.8h-23l-.4-10.8c-.4-11.3-1.8-15.4-7.2-21.9-3.5-4.2-11.8-8.4-17.9-9-11.8-1.2-23.8 5.9-28.8 16.9l-2.4 5.3-.3 112.8-.3 112.7-2.7-.6c-5-1.1-12.8-5.1-16.5-8.4l-3.7-3.2V267H188v70h-6.3c-3.5 0-8.7-.7-11.5-1.5l-5.2-1.6V221.7c0-122.1-.2-116.8 5.7-128.5 1.5-3.1 5.5-8.4 8.8-11.8 22.8-23.3 61.2-19.6 79.4 7.7 6.1 9.1 8.1 16.8 8.1 30.5V131h-23v-9.3c0-11.1-1.7-16.8-6.7-22.6-5.6-6.6-12.3-9.5-21.3-9.5s-15.7 2.9-21.3 9.5c-6.2 7.2-6.7 10-6.7 40.1V166h112v-27.3c0-29.9.7-35.2 5.9-45.5 7.5-14.8 22.8-25.4 39.1-27.1 9-.9 18 .2 25.1 3z"/><path d="M188 216.5V243h112v-53H188v26.5z"/></svg>